<svg xmlns="http://www.w3.org/2000/svg" xmlns:xlink="http://www.w3.org/1999/xlink" width="500" zoomAndPan="magnify" viewBox="0 0 375 149.999998" height="200" preserveAspectRatio="xMidYMid meet" version="1.2"><defs><clipPath id="d9dc3c1b6d"><path d="M 0 56.238281 L 49.195312 56.238281 L 49.195312 93.738281 L 0 93.738281 Z M 0 56.238281 "/></clipPath></defs><g id="e5ee6fbb21"><g clip-rule="nonzero" clip-path="url(#d9dc3c1b6d)"><path style=" stroke:none;fill-rule:nonzero;fill:#010768;fill-opacity:1;" d="M 11.441406 59.300781 L -0.210938 59.300781 C -0.210938 57.8125 1.003906 56.582031 2.519531 56.582031 L 11.988281 56.582031 C 13.277344 56.582031 14.375 57.417969 14.660156 58.671875 L 18.285156 76.179688 C 18.34375 76.488281 18.621094 76.691406 18.929688 76.691406 L 44.214844 76.597656 C 45.527344 76.597656 46.730469 77.121094 47.613281 77.992188 C 48.484375 78.851562 49.042969 80.054688 49.058594 81.378906 L 49.058594 81.511719 C 49.105469 84.765625 46.289062 87.234375 42.972656 86.101562 C 38.835938 84.683594 31.238281 81.855469 15.675781 84.695312 C 24.726562 81.332031 34.433594 80.757812 43.558594 83.441406 C 45.203125 83.929688 46.375 83.214844 46.335938 81.546875 L 46.335938 81.414062 C 46.335938 80.84375 46.085938 80.316406 45.707031 79.9375 C 45.3125 79.554688 44.785156 79.328125 44.214844 79.328125 L 18.382812 79.421875 C 17.210938 79.421875 16.175781 78.648438 15.9375 77.492188 L 12.296875 59.980469 C 12.226562 59.578125 11.859375 59.300781 11.464844 59.300781 Z M 26.648438 69.644531 C 28.089844 69.703125 29.28125 69.726562 30.378906 69.726562 C 30.308594 69.105469 30.308594 68.460938 30.378906 67.78125 C 29.199219 67.675781 28.125 67.472656 27.230469 67.1875 C 28.449219 67.246094 29.472656 67.269531 30.4375 67.269531 C 30.535156 66.648438 30.691406 66.003906 30.917969 65.386719 C 29.328125 65.183594 27.886719 64.789062 26.835938 64.347656 C 28.496094 64.707031 29.722656 64.871094 31.070312 64.96875 C 31.203125 64.632812 31.359375 64.300781 31.523438 63.976562 C 31.476562 64.335938 31.429688 64.667969 31.394531 64.980469 C 32.214844 65.039062 33.097656 65.0625 34.171875 65.085938 C 34.339844 64.597656 34.519531 64.097656 34.757812 63.621094 C 34.683594 64.144531 34.636719 64.65625 34.566406 65.109375 C 35.113281 65.121094 35.710938 65.132812 36.378906 65.171875 C 35.78125 65.324219 35.164062 65.421875 34.519531 65.480469 C 34.445312 66.101562 34.375 66.648438 34.339844 67.175781 C 35.210938 67.113281 36.164062 67.042969 37.273438 66.960938 C 37.429688 65.742188 37.773438 64.480469 38.335938 63.273438 C 38.144531 64.777344 38 65.921875 37.917969 66.910156 C 38.667969 66.839844 39.492188 66.769531 40.398438 66.710938 C 39.5625 66.960938 38.726562 67.1875 37.871094 67.363281 C 37.820312 68.070312 37.773438 68.699219 37.761719 69.332031 C 38.394531 69.285156 39.074219 69.226562 39.8125 69.179688 C 39.132812 69.378906 38.429688 69.570312 37.75 69.726562 C 37.75 70.550781 37.773438 71.433594 37.832031 72.503906 C 37.5 71.765625 37.273438 70.847656 37.179688 69.847656 C 36.175781 70.046875 35.175781 70.191406 34.171875 70.273438 C 34.183594 70.917969 34.207031 71.632812 34.253906 72.457031 C 33.96875 71.863281 33.753906 71.121094 33.648438 70.3125 C 32.730469 70.371094 31.824219 70.382812 30.964844 70.347656 C 30.964844 70.871094 30.988281 71.421875 31.035156 72.089844 C 30.785156 71.574219 30.570312 70.980469 30.464844 70.324219 C 29.019531 70.226562 27.71875 70 26.660156 69.667969 Z M 34.183594 69.582031 C 35.066406 69.535156 36.03125 69.453125 37.152344 69.367188 C 37.117188 68.761719 37.128906 68.117188 37.203125 67.472656 C 36.210938 67.640625 35.222656 67.769531 34.269531 67.832031 C 34.21875 68.4375 34.195312 69.011719 34.183594 69.582031 Z M 31.09375 67.269531 C 31.964844 67.269531 32.789062 67.246094 33.671875 67.199219 C 33.753906 66.636719 33.863281 66.078125 34.027344 65.503906 C 33.132812 65.5625 32.214844 65.515625 31.320312 65.421875 C 31.226562 66.125 31.167969 66.722656 31.09375 67.257812 Z M 30.953125 69.726562 C 31.8125 69.703125 32.65625 69.679688 33.585938 69.632812 C 33.550781 69.058594 33.550781 68.472656 33.585938 67.867188 C 32.71875 67.902344 31.847656 67.890625 31.035156 67.84375 C 30.976562 68.496094 30.941406 69.082031 30.941406 69.726562 Z M 34.21875 89.882812 C 34.21875 91.886719 35.84375 93.496094 37.859375 93.496094 C 39.875 93.496094 41.472656 91.875 41.472656 89.882812 C 41.472656 87.890625 39.847656 86.246094 37.859375 86.246094 C 35.867188 86.246094 34.21875 87.878906 34.21875 89.882812 Z M 24.84375 86.066406 C 22.84375 86.066406 21.21875 87.6875 21.21875 89.691406 C 21.21875 91.695312 22.855469 93.316406 24.84375 93.316406 C 26.835938 93.316406 28.472656 91.695312 28.472656 89.691406 C 28.472656 87.6875 26.835938 86.066406 24.84375 86.066406 Z M 44.453125 75.378906 L 44.382812 73.949219 C 44.105469 68.257812 45.765625 63.964844 46.933594 60.902344 C 47.230469 60.148438 47.480469 59.480469 47.625 59.039062 L 48.589844 56.238281 L 45.824219 57.335938 C 39.800781 59.742188 31.976562 64.632812 21.601562 58.003906 C 29.128906 64.945312 35.902344 63.464844 44.035156 60.875 C 42.925781 63.8125 41.636719 67.675781 41.625 72.648438 L 19.464844 75.09375 Z M 44.453125 75.378906 "/></g><g style="fill:#010068;fill-opacity:1;"><g transform="translate(51.149073, 84.606781)"><path style="stroke:none" d="M 5.125 -7.890625 C 5.125 -6.359375 5.273438 -5.269531 5.578125 -4.625 C 5.878906 -3.976562 6.375 -3.65625 7.0625 -3.65625 C 7.757812 -3.65625 8.738281 -3.816406 10 -4.140625 L 10.671875 -0.5 C 9.304688 0.0078125 7.929688 0.265625 6.546875 0.265625 C 4.484375 0.265625 2.976562 -0.421875 2.03125 -1.796875 C 1.09375 -3.171875 0.625 -5.21875 0.625 -7.9375 C 0.625 -10.65625 1.113281 -12.734375 2.09375 -14.171875 C 3.082031 -15.617188 4.691406 -16.34375 6.921875 -16.34375 C 8.234375 -16.34375 9.484375 -16.066406 10.671875 -15.515625 L 9.96875 -11.5 C 8.625 -11.945312 7.6875 -12.171875 7.15625 -12.171875 C 6.394531 -12.171875 5.863281 -11.835938 5.5625 -11.171875 C 5.269531 -10.515625 5.125 -9.421875 5.125 -7.890625 Z M 5.125 -7.890625 "/></g></g><g style="fill:#010068;fill-opacity:1;"><g transform="translate(61.77245, 84.606781)"><path style="stroke:none" d="M 12.15625 -10.984375 C 12.15625 -10.015625 12.003906 -9.207031 11.703125 -8.5625 C 11.410156 -7.925781 10.957031 -7.351562 10.34375 -6.84375 L 12.484375 0 L 7.6875 0 L 6.09375 -5.796875 L 5.484375 -5.796875 L 5.484375 0 L 1.140625 0 L 1.140625 -16.09375 L 7.15625 -16.09375 C 8.875 -16.09375 10.132812 -15.6875 10.9375 -14.875 C 11.75 -14.0625 12.15625 -12.765625 12.15625 -10.984375 Z M 6.171875 -8.515625 C 6.617188 -8.515625 6.9375 -8.644531 7.125 -8.90625 C 7.3125 -9.164062 7.40625 -9.632812 7.40625 -10.3125 C 7.40625 -11 7.3125 -11.476562 7.125 -11.75 C 6.9375 -12.019531 6.625 -12.15625 6.1875 -12.15625 L 5.484375 -12.15625 L 5.484375 -8.515625 Z M 6.171875 -8.515625 "/></g></g><g style="fill:#010068;fill-opacity:1;"><g transform="translate(74.572322, 84.606781)"><path style="stroke:none" d="M 12.6875 0 L 8.375 0 L 7.875 -2.53125 L 4.8125 -2.53125 L 4.328125 0 L 0.203125 0 L 3.15625 -16.09375 L 9.734375 -16.09375 Z M 7.390625 -5.5625 L 6.484375 -11.328125 L 6.296875 -11.328125 L 5.390625 -5.5625 Z M 7.390625 -5.5625 "/></g></g><g style="fill:#010068;fill-opacity:1;"><g transform="translate(87.475842, 84.606781)"><path style="stroke:none" d="M 9.84375 -12.125 L 5.5625 -12.125 L 5.5625 -9.71875 L 9.015625 -9.71875 L 9.015625 -6.296875 L 5.5625 -6.296875 L 5.5625 0 L 1.140625 0 L 1.140625 -16.09375 L 10.109375 -16.09375 Z M 9.84375 -12.125 "/></g></g><g style="fill:#010068;fill-opacity:1;"><g transform="translate(97.451459, 84.606781)"><path style="stroke:none" d="M 10.484375 -12.171875 L 7.484375 -12.171875 L 7.484375 0 L 3.0625 0 L 3.0625 -12.171875 L -0.125 -12.171875 L 0.125 -16.09375 L 10.75 -16.09375 Z M 10.484375 -12.171875 "/></g></g><g style="fill:#010068;fill-opacity:1;"><g transform="translate(108.074835, 84.606781)"><path style="stroke:none" d="M 12.015625 -16.09375 L 8.1875 -4.96875 L 8.1875 0 L 3.78125 0 L 3.78125 -4.96875 L 0 -16.09375 L 4.875 -16.09375 L 6.03125 -10.859375 L 6.25 -10.859375 L 7.359375 -16.09375 Z M 12.015625 -16.09375 "/></g></g><g style="fill:#010068;fill-opacity:1;"><g transform="translate(120.097397, 84.606781)"><path style="stroke:none" d=""/></g></g><g style="fill:#f00480;fill-opacity:1;"><g transform="translate(125.546664, 84.606781)"><path style="stroke:none" d="M 12.46875 -4.640625 C 12.46875 -1.546875 10.804688 0 7.484375 0 L 1.140625 0 L 1.140625 -16.09375 L 7.359375 -16.09375 C 8.992188 -16.09375 10.207031 -15.757812 11 -15.09375 C 11.800781 -14.425781 12.203125 -13.363281 12.203125 -11.90625 C 12.203125 -10.457031 11.609375 -9.351562 10.421875 -8.59375 L 10.421875 -8.453125 C 11.785156 -7.910156 12.46875 -6.640625 12.46875 -4.640625 Z M 6.453125 -2.875 C 6.972656 -2.875 7.320312 -2.988281 7.5 -3.21875 C 7.675781 -3.457031 7.765625 -3.941406 7.765625 -4.671875 C 7.765625 -5.410156 7.671875 -5.929688 7.484375 -6.234375 C 7.296875 -6.535156 6.953125 -6.6875 6.453125 -6.6875 L 5.625 -6.6875 L 5.625 -2.875 Z M 6.484375 -9.203125 C 6.878906 -9.203125 7.148438 -9.320312 7.296875 -9.5625 C 7.453125 -9.800781 7.53125 -10.226562 7.53125 -10.84375 C 7.53125 -11.457031 7.445312 -11.890625 7.28125 -12.140625 C 7.125 -12.390625 6.847656 -12.515625 6.453125 -12.515625 L 5.625 -12.515625 L 5.625 -9.203125 Z M 6.484375 -9.203125 "/></g></g><g style="fill:#f00480;fill-opacity:1;"><g transform="translate(138.372451, 84.606781)"><path style="stroke:none" d="M 12.6875 0 L 8.375 0 L 7.875 -2.53125 L 4.8125 -2.53125 L 4.328125 0 L 0.203125 0 L 3.15625 -16.09375 L 9.734375 -16.09375 Z M 7.390625 -5.5625 L 6.484375 -11.328125 L 6.296875 -11.328125 L 5.390625 -5.5625 Z M 7.390625 -5.5625 "/></g></g><g style="fill:#f00480;fill-opacity:1;"><g transform="translate(151.275972, 84.606781)"><path style="stroke:none" d="M 12.015625 -16.09375 L 8.1875 -4.96875 L 8.1875 0 L 3.78125 0 L 3.78125 -4.96875 L 0 -16.09375 L 4.875 -16.09375 L 6.03125 -10.859375 L 6.25 -10.859375 L 7.359375 -16.09375 Z M 12.015625 -16.09375 "/></g></g></g></svg>