<svg xmlns="http://www.w3.org/2000/svg" xmlns:xlink="http://www.w3.org/1999/xlink" width="500" zoomAndPan="magnify" viewBox="0 0 375 374.999991" height="500" preserveAspectRatio="xMidYMid meet" version="1.2"><defs><clipPath id="6f162f709f"><path d="M 110.3125 101.359375 L 226.5625 101.359375 L 226.5625 189 L 110.3125 189 Z M 110.3125 101.359375 "/></clipPath></defs><g id="950bb5ebe6"><g clip-rule="nonzero" clip-path="url(#6f162f709f)"><path style=" stroke:none;fill-rule:nonzero;fill:#010768;fill-opacity:1;" d="M 137.890625 108.558594 L 110.519531 108.558594 C 110.519531 105.054688 113.378906 102.171875 116.9375 102.171875 L 139.179688 102.171875 C 142.203125 102.171875 144.78125 104.132812 145.453125 107.074219 L 153.96875 148.195312 C 154.109375 148.925781 154.753906 149.402344 155.480469 149.402344 L 214.871094 149.175781 C 217.949219 149.175781 220.78125 150.410156 222.851562 152.453125 C 224.898438 154.472656 226.214844 157.300781 226.242188 160.410156 L 226.242188 160.71875 C 226.355469 168.367188 219.742188 174.164062 211.957031 171.503906 C 202.234375 168.167969 184.390625 161.53125 147.835938 168.199219 C 169.097656 160.296875 191.898438 158.953125 213.328125 165.257812 C 217.195312 166.40625 219.941406 164.722656 219.855469 160.800781 L 219.855469 160.492188 C 219.855469 159.148438 219.265625 157.917969 218.371094 157.019531 C 217.445312 156.125 216.214844 155.589844 214.871094 155.589844 L 154.191406 155.816406 C 151.449219 155.816406 149.011719 153.996094 148.449219 151.277344 L 139.90625 110.152344 C 139.738281 109.203125 138.871094 108.558594 137.945312 108.558594 Z M 173.605469 132.84375 C 176.996094 132.984375 179.796875 133.039062 182.375 133.039062 C 182.207031 131.585938 182.207031 130.070312 182.375 128.476562 C 179.601562 128.222656 177.078125 127.746094 174.980469 127.074219 C 177.835938 127.214844 180.246094 127.269531 182.515625 127.269531 C 182.738281 125.8125 183.101562 124.300781 183.636719 122.84375 C 179.910156 122.367188 176.519531 121.445312 174.054688 120.40625 C 177.949219 121.246094 180.832031 121.640625 184 121.863281 C 184.308594 121.078125 184.671875 120.296875 185.0625 119.539062 C 184.953125 120.378906 184.839844 121.164062 184.753906 121.890625 C 186.6875 122.03125 188.761719 122.085938 191.28125 122.144531 C 191.675781 120.996094 192.09375 119.820312 192.65625 118.699219 C 192.488281 119.929688 192.375 121.136719 192.207031 122.199219 C 193.496094 122.226562 194.894531 122.253906 196.464844 122.339844 C 195.0625 122.703125 193.609375 122.929688 192.09375 123.066406 C 191.925781 124.523438 191.757812 125.8125 191.675781 127.046875 C 193.71875 126.90625 195.960938 126.738281 198.566406 126.542969 C 198.929688 123.683594 199.742188 120.714844 201.058594 117.886719 C 200.609375 121.414062 200.273438 124.105469 200.078125 126.429688 C 201.84375 126.261719 203.777344 126.09375 205.90625 125.953125 C 203.945312 126.542969 201.984375 127.074219 199.964844 127.496094 C 199.855469 129.148438 199.742188 130.632812 199.714844 132.117188 C 201.199219 132.003906 202.796875 131.863281 204.53125 131.753906 C 202.9375 132.230469 201.28125 132.675781 199.6875 133.039062 C 199.6875 134.972656 199.742188 137.046875 199.882812 139.566406 C 199.097656 137.832031 198.566406 135.675781 198.339844 133.320312 C 195.988281 133.796875 193.636719 134.132812 191.28125 134.328125 C 191.308594 135.84375 191.367188 137.523438 191.480469 139.457031 C 190.804688 138.054688 190.300781 136.320312 190.050781 134.414062 C 187.894531 134.554688 185.765625 134.582031 183.746094 134.496094 C 183.746094 135.730469 183.804688 137.019531 183.914062 138.585938 C 183.328125 137.382812 182.824219 135.980469 182.570312 134.441406 C 179.179688 134.21875 176.128906 133.683594 173.632812 132.902344 Z M 191.308594 132.703125 C 193.382812 132.59375 195.652344 132.398438 198.285156 132.199219 C 198.203125 130.773438 198.230469 129.257812 198.398438 127.746094 C 196.074219 128.136719 193.746094 128.445312 191.507812 128.585938 C 191.394531 130.015625 191.339844 131.359375 191.308594 132.703125 Z M 184.054688 127.269531 C 186.101562 127.269531 188.03125 127.214844 190.105469 127.101562 C 190.300781 125.785156 190.554688 124.46875 190.945312 123.125 C 188.84375 123.265625 186.6875 123.152344 184.585938 122.929688 C 184.363281 124.582031 184.222656 125.980469 184.054688 127.242188 Z M 183.71875 133.039062 C 185.734375 132.984375 187.726562 132.929688 189.910156 132.816406 C 189.824219 131.472656 189.824219 130.097656 189.910156 128.671875 C 187.863281 128.753906 185.820312 128.726562 183.914062 128.613281 C 183.773438 130.15625 183.691406 131.527344 183.691406 133.039062 Z M 191.394531 180.382812 C 191.394531 185.089844 195.203125 188.871094 199.9375 188.871094 C 204.671875 188.871094 208.425781 185.0625 208.425781 180.382812 C 208.425781 175.703125 204.617188 171.839844 199.9375 171.839844 C 195.261719 171.839844 191.394531 175.675781 191.394531 180.382812 Z M 169.375 171.417969 C 164.671875 171.417969 160.859375 175.230469 160.859375 179.933594 C 160.859375 184.640625 164.699219 188.449219 169.375 188.449219 C 174.054688 188.449219 177.890625 184.640625 177.890625 179.933594 C 177.890625 175.230469 174.054688 171.417969 169.375 171.417969 Z M 215.429688 146.320312 L 215.261719 142.957031 C 214.617188 129.59375 218.511719 119.511719 221.257812 112.3125 C 221.957031 110.546875 222.546875 108.976562 222.882812 107.941406 L 225.148438 101.359375 L 218.652344 103.933594 C 204.503906 109.59375 186.128906 121.078125 161.757812 105.503906 C 179.433594 121.808594 195.34375 118.335938 214.449219 112.253906 C 211.84375 119.144531 208.820312 128.222656 208.789062 139.902344 L 156.742188 145.648438 Z M 215.429688 146.320312 "/></g><g style="fill:#010068;fill-opacity:1;"><g transform="translate(56.488966, 240.130332)"><path style="stroke:none" d="M 11.984375 -18.421875 C 11.984375 -14.859375 12.335938 -12.316406 13.046875 -10.796875 C 13.753906 -9.285156 14.914062 -8.53125 16.53125 -8.53125 C 18.144531 -8.53125 20.421875 -8.914062 23.359375 -9.6875 L 24.9375 -1.15625 C 21.75 0.0195312 18.539062 0.609375 15.3125 0.609375 C 10.46875 0.609375 6.945312 -0.992188 4.75 -4.203125 C 2.550781 -7.410156 1.453125 -12.191406 1.453125 -18.546875 C 1.453125 -24.910156 2.601562 -29.773438 4.90625 -33.140625 C 7.207031 -36.503906 10.957031 -38.1875 16.15625 -38.1875 C 19.226562 -38.1875 22.15625 -37.546875 24.9375 -36.265625 L 23.296875 -26.875 C 20.148438 -27.925781 17.953125 -28.453125 16.703125 -28.453125 C 14.929688 -28.453125 13.703125 -27.671875 13.015625 -26.109375 C 12.328125 -24.554688 11.984375 -21.992188 11.984375 -18.421875 Z M 11.984375 -18.421875 "/></g></g><g style="fill:#010068;fill-opacity:1;"><g transform="translate(81.304808, 240.130332)"><path style="stroke:none" d="M 28.390625 -25.671875 C 28.390625 -23.410156 28.046875 -21.53125 27.359375 -20.03125 C 26.671875 -18.539062 25.601562 -17.191406 24.15625 -15.984375 L 29.171875 0 L 17.984375 0 L 14.21875 -13.5625 L 12.828125 -13.5625 L 12.828125 0 L 2.65625 0 L 2.65625 -37.59375 L 16.703125 -37.59375 C 20.742188 -37.59375 23.703125 -36.644531 25.578125 -34.75 C 27.453125 -32.851562 28.390625 -29.828125 28.390625 -25.671875 Z M 14.40625 -19.921875 C 15.457031 -19.921875 16.203125 -20.222656 16.640625 -20.828125 C 17.085938 -21.429688 17.3125 -22.53125 17.3125 -24.125 C 17.3125 -25.71875 17.085938 -26.828125 16.640625 -27.453125 C 16.203125 -28.078125 15.476562 -28.390625 14.46875 -28.390625 L 12.828125 -28.390625 L 12.828125 -19.921875 Z M 14.40625 -19.921875 "/></g></g><g style="fill:#010068;fill-opacity:1;"><g transform="translate(111.204866, 240.130332)"><path style="stroke:none" d="M 29.65625 0 L 19.546875 0 L 18.40625 -5.9375 L 11.265625 -5.9375 L 10.109375 0 L 0.484375 0 L 7.390625 -37.59375 L 22.765625 -37.59375 Z M 17.25 -13.015625 L 15.125 -26.453125 L 14.703125 -26.453125 L 12.59375 -13.015625 Z M 17.25 -13.015625 "/></g></g><g style="fill:#010068;fill-opacity:1;"><g transform="translate(141.347044, 240.130332)"><path style="stroke:none" d="M 23 -28.328125 L 13.015625 -28.328125 L 13.015625 -22.703125 L 21.0625 -22.703125 L 21.0625 -14.703125 L 13.015625 -14.703125 L 13.015625 0 L 2.65625 0 L 2.65625 -37.59375 L 23.609375 -37.59375 Z M 23 -28.328125 "/></g></g><g style="fill:#010068;fill-opacity:1;"><g transform="translate(164.649739, 240.130332)"><path style="stroke:none" d="M 24.515625 -28.453125 L 17.5 -28.453125 L 17.5 0 L 7.140625 0 L 7.140625 -28.453125 L -0.296875 -28.453125 L 0.296875 -37.59375 L 25.125 -37.59375 Z M 24.515625 -28.453125 "/></g></g><g style="fill:#010068;fill-opacity:1;"><g transform="translate(189.46558, 240.130332)"><path style="stroke:none" d="M 28.09375 -37.59375 L 19.125 -11.625 L 19.125 0 L 8.84375 0 L 8.84375 -11.625 L 0 -37.59375 L 11.375 -37.59375 L 14.109375 -25.359375 L 14.59375 -25.359375 L 17.1875 -37.59375 Z M 28.09375 -37.59375 "/></g></g><g style="fill:#010068;fill-opacity:1;"><g transform="translate(217.54987, 240.130332)"><path style="stroke:none" d=""/></g></g><g style="fill:#f00480;fill-opacity:1;"><g transform="translate(230.279167, 240.130332)"><path style="stroke:none" d="M 29.109375 -10.828125 C 29.109375 -3.609375 25.238281 0 17.5 0 L 2.65625 0 L 2.65625 -37.59375 L 17.1875 -37.59375 C 21.019531 -37.59375 23.863281 -36.8125 25.71875 -35.25 C 27.582031 -33.695312 28.515625 -31.226562 28.515625 -27.84375 C 28.515625 -24.457031 27.117188 -21.875 24.328125 -20.09375 L 24.328125 -19.734375 C 27.515625 -18.484375 29.109375 -15.515625 29.109375 -10.828125 Z M 15.078125 -6.71875 C 16.285156 -6.71875 17.097656 -6.988281 17.515625 -7.53125 C 17.941406 -8.082031 18.15625 -9.210938 18.15625 -10.921875 C 18.15625 -12.640625 17.929688 -13.847656 17.484375 -14.546875 C 17.046875 -15.253906 16.242188 -15.609375 15.078125 -15.609375 L 13.140625 -15.609375 L 13.140625 -6.71875 Z M 15.125 -21.484375 C 16.0625 -21.484375 16.707031 -21.765625 17.0625 -22.328125 C 17.425781 -22.898438 17.609375 -23.898438 17.609375 -25.328125 C 17.609375 -26.765625 17.414062 -27.773438 17.03125 -28.359375 C 16.65625 -28.941406 16.003906 -29.234375 15.078125 -29.234375 L 13.140625 -29.234375 L 13.140625 -21.484375 Z M 15.125 -21.484375 "/></g></g><g style="fill:#f00480;fill-opacity:1;"><g transform="translate(260.239765, 240.130332)"><path style="stroke:none" d="M 29.65625 0 L 19.546875 0 L 18.40625 -5.9375 L 11.265625 -5.9375 L 10.109375 0 L 0.484375 0 L 7.390625 -37.59375 L 22.765625 -37.59375 Z M 17.25 -13.015625 L 15.125 -26.453125 L 14.703125 -26.453125 L 12.59375 -13.015625 Z M 17.25 -13.015625 "/></g></g><g style="fill:#f00480;fill-opacity:1;"><g transform="translate(290.381943, 240.130332)"><path style="stroke:none" d="M 28.09375 -37.59375 L 19.125 -11.625 L 19.125 0 L 8.84375 0 L 8.84375 -11.625 L 0 -37.59375 L 11.375 -37.59375 L 14.109375 -25.359375 L 14.59375 -25.359375 L 17.1875 -37.59375 Z M 28.09375 -37.59375 "/></g></g></g></svg>